<svg fill="#ffffff" xmlns="http://www.w3.org/2000/svg" version="1.1" viewBox="-5.0 -5.0 105.0 105.0">
  <path
    d="m54.168 16.668c-2.3008 0-4.168 1.8633-4.168 4.1641s1.8672 4.168 4.168 4.168h7.4141l5.5547 16.668h-20.152l-1.4883-4.168h0.33594c2.3008 0 4.168-1.8672 4.168-4.168s-1.8672-4.1641-4.168-4.1641h-6.1523c-0.0625-0.003907-0.12891-0.003907-0.19531 0h-6.1523c-2.3008 0-4.1641 1.8633-4.1641 4.1641s1.8633 4.168 4.1641 4.168h3.3164l7.4375 20.832h-2.8359c-1.9297-9.5078-10.336-16.664-20.418-16.664-11.504 0-20.832 9.3242-20.832 20.832s9.3281 20.832 20.832 20.832c10.082 0 18.488-7.1562 20.418-16.664h8.6523 0.19531 8.6523c1.9297 9.5078 10.336 16.664 20.418 16.664 11.504 0 20.832-9.3242 20.832-20.832s-9.3281-20.832-20.832-20.832h-3.25l-6.4336-19.305c-1.1328-3.4023-4.3164-5.6953-7.9023-5.6953zm16.773 36.418 2.1875 6.5664c0.73047 2.1836 3.0898 3.3633 5.2734 2.6328 2.1836-0.72656 3.3633-3.0859 2.6328-5.2695l-2.3359-7.0078c0.15625-0.003906 0.3125-0.007812 0.46875-0.007812 6.9023 0 12.5 5.5977 12.5 12.5s-5.5977 12.5-12.5 12.5c-6.9062 0-12.5-5.5977-12.5-12.5 0-3.7539 1.6523-7.1211 4.2734-9.4141zm-18.004 5.2461-2.9766-8.332h12.539c-1.8203 2.4219-3.125 5.2539-3.75 8.332zm-32.105 16.668c5.4453 0 10.074-3.4766 11.789-8.332h-7.6211c-2.3008 0-4.168-1.8672-4.168-4.168s1.8672-4.168 4.168-4.168h7.6211c-1.7148-4.8555-6.3438-8.332-11.789-8.332-6.9023 0-12.5 5.5977-12.5 12.5s5.5977 12.5 12.5 12.5z"
    fill-rule="evenodd" />
</svg>